<?xml version="1.0" standalone="no"?><!DOCTYPE svg PUBLIC "-//W3C//DTD SVG 1.1//EN" "http://www.w3.org/Graphics/SVG/1.1/DTD/svg11.dtd"><svg t="1517584418934" class="icon" style="" viewBox="0 0 1024 1024" version="1.1" xmlns="http://www.w3.org/2000/svg" p-id="1760" xmlns:xlink="http://www.w3.org/1999/xlink" width="200" height="200"><defs><style type="text/css"></style></defs><path d="M511.9 135.9c-207.1 0-375 167.9-375 375s167.9 375 375 375 375-167.9 375-375-167.9-375-375-375z m0 510c-74.6 0-135-60.4-135-135s60.4-135 135-135 135 60.4 135 135c0 74.5-60.4 135-135 135z" fill="#FFE48F" p-id="1761"></path><path d="M511.9 895.9c-52 0-102.4-10.2-149.9-30.3-45.8-19.4-87-47.1-122.4-82.5s-63.1-76.5-82.5-122.4c-20.1-47.5-30.3-97.9-30.3-149.9s10.2-102.4 30.3-149.9c19.4-45.8 47.1-87 82.5-122.4S316.1 175.4 362 156c47.5-20.1 97.9-30.3 149.9-30.3s102.4 10.2 149.9 30.3c45.8 19.4 87 47.1 122.4 82.5s63.1 76.5 82.5 122.4c20.1 47.5 30.3 97.9 30.3 149.9s-10.2 102.4-30.3 149.9c-19.4 45.8-47.2 87-82.5 122.4s-76.5 63.1-122.4 82.5c-47.5 20.1-97.9 30.3-149.9 30.3z m0-750c-49.3 0-97.1 9.6-142.1 28.7-43.5 18.4-82.5 44.7-116 78.2s-59.8 72.6-78.2 116c-19 45-28.7 92.8-28.7 142.1s9.6 97.1 28.7 142.1c18.4 43.5 44.7 82.5 78.2 116s72.6 59.8 116 78.2c45 19 92.8 28.7 142.1 28.7s97.1-9.6 142.1-28.7c43.5-18.4 82.5-44.7 116-78.2s59.8-72.6 78.2-116c19-45 28.7-92.8 28.7-142.1s-9.6-97.1-28.7-142.1c-18.4-43.5-44.7-82.5-78.2-116s-72.6-59.8-116-78.2c-45-19.1-92.8-28.7-142.1-28.7z m0 510c-80 0-145-65-145-145s65-145 145-145 145 65 145 145-65.1 145-145 145z m0-270c-68.9 0-125 56.1-125 125s56.1 125 125 125 125-56.1 125-125-56.1-125-125-125z" fill="#543630" p-id="1762"></path><path d="M857.1 365.9c3 16.4-17.7 40.8-18.2 58-6 209-128.2 354-312 368-184 14-323.8-70.5-383.6-210.5 33.4 181.8 196.9 315.3 386.6 306.3 206.9-9.8 366.6-185.5 356.8-392.4-2.2-45.9-12.6-89.5-29.6-129.4z" fill="#F9C85A" p-id="1763"></path><path d="M226.9 526.9c31.8 0 48.2 14 62.7 26.4 13.6 11.6 25.3 21.6 49.8 21.6 21.9 0 33.6-8 45.5-18-5.2-14.3-8-29.8-8-46 0-74.6 60.4-135 135-135s135 60.4 135 135c0 7.4-0.6 14.7-1.8 21.8 8.7-3.5 19-5.8 31.7-5.8 31.8 0 48.2 14 62.7 26.4 13.6 11.6 25.3 21.6 49.8 21.6s36.2-10 49.8-21.6c12-10.2 25.2-21.5 47.3-25.2 0.3-5.7 0.4-11.4 0.4-17.2 0-207.1-167.9-375-375-375s-375 167.9-375 375c0 19.9 1.6 39.4 4.5 58.5 8.6-4 15.4-9.8 22.7-16.1 14.6-12.4 31.1-26.4 62.9-26.4z" fill="#FF6687" p-id="1764"></path><path d="M789.4 584.9c-28.1 0-42.4-12.2-56.3-24-13.8-11.8-28.1-24-56.3-24-10.4 0-19.6 1.6-28 5-3.3 1.4-7.2 0.8-10-1.5s-4.2-5.9-3.6-9.4c1.1-6.7 1.6-13.4 1.6-20.2 0-68.9-56.1-125-125-125s-125 56.1-125 125c0 14.6 2.5 28.9 7.4 42.6 1.4 4 0.2 8.4-3 11.1-12.3 10.3-26.5 20.4-52 20.4-28.1 0-42.4-12.2-56.2-24-13.8-11.8-28.1-24-56.2-24s-42.4 12.2-56.2 24c-7.5 6.4-15.2 12.9-25 17.5-2.8 1.3-6.2 1.2-8.9-0.2-2.8-1.5-4.7-4.2-5.2-7.3-3.1-19.7-4.7-39.9-4.7-60 0-52 10.2-102.4 30.3-149.9 19.4-45.8 47.1-87 82.5-122.4s76.5-63.1 122.4-82.5c47.5-20.1 97.9-30.3 149.9-30.3s102.4 10.2 149.9 30.3c45.8 19.4 87 47.1 122.4 82.5s63.1 76.5 82.5 122.4c20.1 47.5 30.3 97.9 30.3 149.9 0 5.8-0.1 11.7-0.4 17.7-0.2 4.7-3.7 8.6-8.4 9.4-19.4 3.2-31.1 13.2-42.5 22.9-7.2 6.1-14 12-22.7 16.4-10.1 5.2-20.8 7.6-33.6 7.6z m-112.5-68c35.5 0 54.2 16 69.2 28.8 13.1 11.2 22.5 19.2 43.3 19.2s30.2-8.1 43.3-19.2c10.8-9.2 23.9-20.4 44.1-25.7 0.1-3.1 0.1-6.1 0.1-9.1 0-49.3-9.6-97.1-28.7-142.1-18.4-43.5-44.7-82.5-78.2-116s-72.6-59.8-116-78.2c-45-19-92.8-28.7-142.1-28.7s-97.1 9.6-142.1 28.7c-43.5 18.4-82.5 44.7-116 78.2s-59.8 72.6-78.2 116c-19 45-28.7 92.8-28.7 142.1 0 13.9 0.8 27.9 2.4 41.7 2.7-2.1 5.5-4.5 8.4-7 15-12.8 33.7-28.8 69.2-28.8s54.2 16 69.2 28.8c13.1 11.2 22.5 19.2 43.3 19.2 15.7 0 25-4.7 33.9-11.5-4.2-13.7-6.3-28-6.3-42.5 0-80 65-145 145-145s145 65 145 145c0 2.6-0.1 5.3-0.2 7.9 6.3-1.2 13-1.8 20.1-1.8z" fill="#543630" p-id="1765"></path><path d="M587.1 254.6c-5 0-9.9-2.3-13-6.7l-12.9-18.1c-5.1-7.2-3.5-17.2 3.7-22.3 7.2-5.1 17.2-3.5 22.3 3.7l12.9 18.1c5.1 7.2 3.5 17.2-3.7 22.3-2.8 2.1-6 3-9.3 3zM224.6 480c-0.9 0-1.8-0.1-2.7-0.2l-17.6-3c-8.7-1.5-14.6-9.8-13.1-18.5s9.8-14.6 18.5-13.1l17.6 3c8.7 1.5 14.6 9.8 13.1 18.5-1.4 7.8-8.1 13.3-15.8 13.3zM311.7 427.9c-8.3 0-15.3-6.4-15.9-14.9l-1.4-20.1c-0.6-8.8 6-16.5 14.8-17.1 8.8-0.6 16.5 6 17.1 14.8l1.4 20.1c0.6 8.8-6 16.5-14.8 17.1-0.4 0.1-0.8 0.1-1.2 0.1zM696.7 308.5c-5.5 0-10.8-2.8-13.8-7.9-4.5-7.6-1.9-17.4 5.7-21.9l13.7-8.1c7.6-4.5 17.4-1.9 21.9 5.7s1.9 17.4-5.7 21.9l-13.7 8.1c-2.6 1.5-5.4 2.2-8.1 2.2zM441.9 212.9c-6.8 0-13.1-4.4-15.3-11.2-2.6-8.4 2-17.4 10.5-20.1l15.2-4.8c8.4-2.6 17.4 2 20.1 10.5 2.6 8.4-2 17.4-10.5 20.1l-15.2 4.8c-1.6 0.5-3.2 0.7-4.8 0.7zM352.5 295.8c-3.1 0-6.2-0.9-9-2.8l-18.4-12.5c-7.3-5-9.2-14.9-4.2-22.2 5-7.3 14.9-9.2 22.2-4.2l18.4 12.5c7.3 5 9.2 14.9 4.2 22.2-3.1 4.5-8.1 7-13.2 7zM702.1 412.7c-3.2 0-6.4-1-9.2-2.9l-14.7-10.4c-7.2-5.1-8.9-15.1-3.8-22.3 5.1-7.2 15.1-8.9 22.3-3.8l14.7 10.4c7.2 5.1 8.9 15.1 3.8 22.3-3.1 4.3-8.1 6.7-13.1 6.7zM787.9 483.6c-2.5 0-5-0.6-7.3-1.8-7.9-4-10.9-13.7-6.9-21.6l11-21.4c4.1-7.9 13.7-10.9 21.6-6.9 7.9 4 10.9 13.7 6.9 21.6l-11 21.4c-2.9 5.6-8.5 8.7-14.3 8.7z" fill="#FFFFFF" p-id="1766"></path><path d="M486.9 338.1c-3.5 0-7.1-1.2-10-3.5-6.9-5.5-8-15.6-2.4-22.5l13.5-16.7c5.5-6.9 15.6-8 22.5-2.4 6.9 5.5 8 15.6 2.4 22.5l-13.5 16.7c-3.2 3.9-7.9 5.9-12.5 5.9z" fill="#FFFFFF" p-id="1767"></path><path d="M511.9 895.9c-52 0-102.4-10.2-149.9-30.3-45.8-19.4-87-47.1-122.4-82.5s-63.1-76.5-82.5-122.4c-20.1-47.5-30.3-97.9-30.3-149.9s10.2-102.4 30.3-149.9c19.4-45.8 47.1-87 82.5-122.4S316.1 175.4 362 156c47.5-20.1 97.9-30.3 149.9-30.3s102.4 10.2 149.9 30.3c45.8 19.4 87 47.1 122.4 82.5s63.1 76.5 82.5 122.4c20.1 47.5 30.3 97.9 30.3 149.9s-10.2 102.4-30.3 149.9c-19.4 45.8-47.2 87-82.5 122.4s-76.5 63.1-122.4 82.5c-47.5 20.1-97.9 30.3-149.9 30.3z m0-750c-49.3 0-97.1 9.6-142.1 28.7-43.5 18.4-82.5 44.7-116 78.2s-59.8 72.6-78.2 116c-19 45-28.7 92.8-28.7 142.1s9.6 97.1 28.7 142.1c18.4 43.5 44.7 82.5 78.2 116s72.6 59.8 116 78.2c45 19 92.8 28.7 142.1 28.7s97.1-9.6 142.1-28.7c43.5-18.4 82.5-44.7 116-78.2s59.8-72.6 78.2-116c19-45 28.7-92.8 28.7-142.1s-9.6-97.1-28.7-142.1c-18.4-43.5-44.7-82.5-78.2-116s-72.6-59.8-116-78.2c-45-19.1-92.8-28.7-142.1-28.7z m0 510c-80 0-145-65-145-145s65-145 145-145 145 65 145 145-65.1 145-145 145z m0-270c-68.9 0-125 56.1-125 125s56.1 125 125 125 125-56.1 125-125-56.1-125-125-125z" fill="#543630" p-id="1768"></path></svg>